<?xml version="1.0" encoding="UTF-8" standalone="no"?>
<!-- Generator: Adobe Illustrator 10.0.3, SVG Export Plug-In . SVG Version: 3.0.0 Build 77)  -->
<svg
   xmlns:a="http://ns.adobe.com/AdobeSVGViewerExtensions/3.0/"
   xmlns:dc="http://purl.org/dc/elements/1.1/"
   xmlns:cc="http://creativecommons.org/ns#"
   xmlns:rdf="http://www.w3.org/1999/02/22-rdf-syntax-ns#"
   xmlns:svg="http://www.w3.org/2000/svg"
   xmlns="http://www.w3.org/2000/svg"
   xmlns:sodipodi="http://sodipodi.sourceforge.net/DTD/sodipodi-0.dtd"
   xmlns:inkscape="http://www.inkscape.org/namespaces/inkscape"
   width="128"
   height="128"
   viewBox="0 0 128 128"
   overflow="visible"
   enable-background="new 0 0 128 128"
   xml:space="preserve"
   id="svg2"
   sodipodi:version="0.32"
   inkscape:version="0.46"
   sodipodi:docname="exec.svg"
   inkscape:output_extension="org.inkscape.output.svg.inkscape"><metadata
   id="metadata61"><rdf:RDF><cc:Work
       rdf:about=""><dc:format>image/svg+xml</dc:format><dc:type
         rdf:resource="http://purl.org/dc/dcmitype/StillImage" /></cc:Work></rdf:RDF></metadata><defs
   id="defs59"><inkscape:perspective
     sodipodi:type="inkscape:persp3d"
     inkscape:vp_x="0 : 64 : 1"
     inkscape:vp_y="0 : 1000 : 0"
     inkscape:vp_z="128 : 64 : 1"
     inkscape:persp3d-origin="64 : 42.666667 : 1"
     id="perspective63" /></defs><sodipodi:namedview
   inkscape:window-height="672"
   inkscape:window-width="640"
   inkscape:pageshadow="2"
   inkscape:pageopacity="0.0"
   guidetolerance="10.0"
   gridtolerance="10.0"
   objecttolerance="10.0"
   borderopacity="1.0"
   bordercolor="#666666"
   pagecolor="#ffffff"
   id="base"
   showgrid="false"
   inkscape:zoom="3.609375"
   inkscape:cx="64"
   inkscape:cy="64"
   inkscape:window-x="0"
   inkscape:window-y="24"
   inkscape:current-layer="Layer_1" />
	<g
   id="Layer_1">
		<linearGradient
   id="XMLID_1_"
   gradientUnits="userSpaceOnUse"
   x1="63.271"
   y1="34.5859"
   x2="63.271"
   y2="71.5838"
   gradientTransform="translate(-49.038961,51.255411)">
			<stop
   offset="0"
   style="stop-color:#003DC7"
   id="stop6" />
			<stop
   offset="1"
   style="stop-color:#4CA4FF"
   id="stop8" />
			<a:midPointStop
   offset="0"
   style="stop-color:#003DC7" />
			<a:midPointStop
   offset="0.5"
   style="stop-color:#003DC7" />
			<a:midPointStop
   offset="1"
   style="stop-color:#4CA4FF" />
		</linearGradient>
		
		<path
   fill="#FFFFFF"
   d="M120.214,56.626l-5.558-0.048l-2.366,0.094l0.479,8.619L120.214,56.626z"
   id="path12" />
		<linearGradient
   id="XMLID_2_"
   gradientUnits="userSpaceOnUse"
   x1="68.251"
   y1="-3.418"
   x2="68.251"
   y2="58.0832">
			<stop
   offset="0"
   style="stop-color:#513900;stop-opacity:1;"
   id="stop15" />
			<stop
   offset="1"
   style="stop-color:#ffce58;stop-opacity:1;"
   id="stop17" />
			<a:midPointStop
   offset="0"
   style="stop-color:#000051" />
			<a:midPointStop
   offset="0.5"
   style="stop-color:#000051" />
			<a:midPointStop
   offset="1"
   style="stop-color:#58B1FF" />
		</linearGradient>
		<path
   fill="url(#XMLID_2_)"
   d="M82.396,29.821C65.97,19.158,46.313,20.28,38.492,32.327c-2.484,3.827-3.471,8.297-3.141,12.954    c7.217-11.231,24.555-12.152,39.086-1.945C86.959,52.129,93.355,66.35,90.7,77.602c2.943-1.611,5.439-3.83,7.273-6.66    C105.798,58.895,98.821,40.483,82.396,29.821z"
   id="path19" />
		
			<radialGradient
   id="XMLID_3_"
   cx="73.4268"
   cy="136.7842"
   r="53.1517"
   fx="73.4268"
   fy="136.7842"
   gradientUnits="userSpaceOnUse">
			<stop
   offset="0"
   style="stop-color:#FFFFFF"
   id="stop22" />
			<stop
   offset="1"
   style="stop-color:#dd6300;stop-opacity:1;"
   id="stop24" />
			<a:midPointStop
   offset="0"
   style="stop-color:#FFFFFF" />
			<a:midPointStop
   offset="0.5"
   style="stop-color:#FFFFFF" />
			<a:midPointStop
   offset="1"
   style="stop-color:#006ACA" />
		</radialGradient>
		<path
   fill="url(#XMLID_3_)"
   d="M19.898,80.158l-3.252,11.545l11.188,12.652l10.904-7.891l13.312,8.186l0.141,15.479l14.225,2.832    l8.206-10.895l0.486-3.291l7.53-0.254l7.648,11.756l10.621-5.654l9.384-11.068l-0.002-0.002l0.177-0.09l-4.715-8.844l5.494,2.889    l10.263-10.762l1.567-11.539l-10.179-7.598l-0.128-2.318l7.27-8.924l-5.166-10.483l-8.507-1.822l-7.596-10.026l3.646-4.862    l-8.659-8.052l-6.532,3.189l-10.938-7.443l-0.152-5.47L64.283,6.385l-2.734,7.141l-9.724-1.824l-5.317-6.684L34.691,6.497    l-1.517,12.241l-2.616,1.169L20.227,14.74l-6.662,7.736l-1.381,12.767l6.475,5.91L6.816,41.473L4.893,54.197l1.416,13.694    l13.028,1.338l3.864,7.857L19.898,80.158z M97.974,70.941c-7.819,12.051-27.476,13.174-43.901,2.51    c-16.426-10.664-23.401-29.074-15.58-41.125c7.821-12.047,27.478-13.169,43.903-2.506C98.821,40.483,105.798,58.895,97.974,70.941    z"
   id="path26" />
		
			<radialGradient
   id="XMLID_4_"
   cx="80.6709"
   cy="122.6865"
   r="116.7806"
   fx="80.6709"
   fy="122.6865"
   gradientUnits="userSpaceOnUse">
			<stop
   offset="0"
   style="stop-color:#CAFFFF"
   id="stop29" />
			<stop
   offset="1"
   style="stop-color:#0090FF"
   id="stop31" />
			<a:midPointStop
   offset="0"
   style="stop-color:#CAFFFF" />
			<a:midPointStop
   offset="0.5"
   style="stop-color:#CAFFFF" />
			<a:midPointStop
   offset="1"
   style="stop-color:#0090FF" />
		</radialGradient>
		<path
   fill="url(#XMLID_4_)"
   d="M112.163,67.471l-0.599-10.769l7.63-0.301l-5.086-10.321l-8.376-1.794l-7.479-9.872l3.59-4.787    l-8.525-7.929l-6.432,3.143l-10.771-7.33l-0.148-5.385l-11.67-4.934l-2.691,7.029l-9.572-1.794l-5.235-6.583L35.73,7.339    l5.084,8.825l-9.723,4.339l-10.17-5.086l-6.133,7.478l9.424,7.181l-2.545,11.219L8.355,42.041l1.497,13.764l13.761,1.345    l6.881,13.311l-9.723,9.277l11.816,12.711l11.518-7.928l14.061,8.227l0.148,15.557l16.155,2.992l2.094-14.209l13.911-0.451    l8.077,11.816l11.219-5.682l-7.18-13.463l7.328-9.123l10.771,5.385l1.495-10.621L112.163,67.471z M97.47,70.752    c-7.698,11.861-27.053,12.967-43.224,2.469C38.072,62.723,31.204,44.596,38.905,32.733c7.7-11.863,27.054-12.969,43.226-2.47    C98.304,40.764,105.171,58.889,97.47,70.752z"
   id="path33" />
		
			<radialGradient
   id="XMLID_5_"
   cx="69.9482"
   cy="120.5879"
   r="95.4979"
   fx="69.9482"
   fy="120.5879"
   gradientUnits="userSpaceOnUse">
			<stop
   offset="0"
   style="stop-color:#FFFFFF"
   id="stop36" />
			<stop
   offset="1"
   style="stop-color:#ffbd1c;stop-opacity:0.98395723;"
   id="stop38" />
			<a:midPointStop
   offset="0"
   style="stop-color:#FFFFFF" />
			<a:midPointStop
   offset="0.5"
   style="stop-color:#FFFFFF" />
			<a:midPointStop
   offset="1"
   style="stop-color:#0095FF" />
		</radialGradient>
		<path
   fill="url(#XMLID_5_)"
   d="M112.163,67.471l-0.599-10.769l7.63-0.301l-5.086-10.321l-8.376-1.794l-7.479-9.872l3.59-4.787    l-8.525-7.929l-6.432,3.143l-10.771-7.33l-0.148-5.385l-11.67-4.934l-2.691,7.029l-9.572-1.794l-5.235-6.583L35.73,7.339    l5.084,8.825l-9.723,4.339l-10.17-5.086l-6.133,7.478l9.424,7.181l-2.545,11.219L8.355,42.041l1.497,13.764l13.761,1.345    l6.881,13.311l-9.723,9.277l11.816,12.711l11.518-7.928l14.061,8.227l0.148,15.557l16.155,2.992l2.094-14.209l13.911-0.451    l8.077,11.816l11.219-5.682l-7.18-13.463l7.328-9.123l10.771,5.385l1.495-10.621L112.163,67.471z M97.47,70.752    c-7.698,11.861-27.053,12.967-43.224,2.469C38.072,62.723,31.204,44.596,38.905,32.733c7.7-11.863,27.054-12.969,43.226-2.47    C98.304,40.764,105.171,58.889,97.47,70.752z"
   id="path40" />
		<linearGradient
   id="XMLID_6_"
   gradientUnits="userSpaceOnUse"
   x1="63.9995"
   y1="59.0845"
   x2="63.9995"
   y2="145.0817">
			<stop
   offset="0"
   style="stop-color:#003DC7"
   id="stop43" />
			<stop
   offset="1"
   style="stop-color:#4CA4FF"
   id="stop45" />
			<a:midPointStop
   offset="0"
   style="stop-color:#003DC7" />
			<a:midPointStop
   offset="0.5"
   style="stop-color:#003DC7" />
			<a:midPointStop
   offset="1"
   style="stop-color:#4CA4FF" />
		</linearGradient>
		
		
			<radialGradient
   id="XMLID_7_"
   cx="-11.0435"
   cy="-11.376"
   r="103.4305"
   fx="-11.0435"
   fy="-11.376"
   gradientUnits="userSpaceOnUse">
			<stop
   offset="0"
   style="stop-color:#FFFFFF"
   id="stop50" />
			<stop
   offset="1"
   style="stop-color:#ffc22f;stop-opacity:1;"
   id="stop52" />
			<a:midPointStop
   offset="0"
   style="stop-color:#FFFFFF" />
			<a:midPointStop
   offset="0.5"
   style="stop-color:#FFFFFF" />
			<a:midPointStop
   offset="1"
   style="stop-color:#8BCEFF" />
		</radialGradient>
		<path
   fill="url(#XMLID_7_)"
   d="M53.429,74.479c-9.618-6.242-16.562-15.617-18.573-25.072c-1.383-6.499-0.418-12.547,2.791-17.49    c3.209-4.944,8.34-8.288,14.84-9.67c9.456-2.012,20.844,0.515,30.461,6.759c3.586,2.328,6.716,5.032,9.364,7.958    c1.515-3.42,2.784-6.968,3.799-10.619c-1.306-1.214-2.542-2.364-3.061-2.846c-1.356,0.663-5.506,2.69-5.506,2.69    c-0.483,0.236-1.057,0.195-1.502-0.107l-10.771-7.33c-0.398-0.271-0.643-0.717-0.655-1.199c0,0-0.087-3.121-0.122-4.421    c-1.316-0.556-7.341-3.104-9.352-3.954c-0.699,1.827-2.136,5.579-2.136,5.579c-0.259,0.676-0.965,1.071-1.677,0.938L51.757,13.9    c-0.354-0.066-0.673-0.258-0.897-0.541c0,0-3.848-4.838-4.705-5.916c-1.129,0.153-5.445,0.736-8.01,1.083    c1.359,2.36,3.969,6.889,3.969,6.889c0.133,0.23,0.201,0.488,0.201,0.749c0,0.156-0.025,0.312-0.074,0.463    c-0.131,0.404-0.428,0.733-0.814,0.906l-9.723,4.339c-0.41,0.183-0.88,0.173-1.281-0.028c0,0-7.385-3.693-9.1-4.55    c-0.953,1.161-3.204,3.906-4.389,5.35c1.867,1.422,8.188,6.239,8.188,6.239c0.377,0.287,0.592,0.731,0.592,1.193    c0,0.11-0.013,0.221-0.037,0.332l-2.545,11.219c-0.147,0.653-0.71,1.129-1.379,1.166c0,0-9.282,0.521-11.734,0.658    c0.242,2.221,1.002,9.217,1.194,10.98c2.018,0.197,12.547,1.227,12.547,1.227c0.507,0.049,0.953,0.352,1.187,0.804l6.881,13.312    c0.113,0.217,0.168,0.453,0.168,0.688c0,0.4-0.16,0.795-0.465,1.086c0,0-6.955,6.635-8.65,8.254    c0.65,0.699,2.264,2.436,4.016,4.32c10.194-1.068,19.812-4.002,28.512-8.43C54.74,75.303,54.08,74.902,53.429,74.479z"
   id="path54"
   style="fill-opacity:1.0" />
		<path
   fill="none"
   d="M128,128H0V0h128V128z"
   id="path56" />
	</g>
</svg>